HIERARCHY
ROOT Hips
{
 OFFSET 0.000000 0.000000 0.000000
 CHANNELS 6 Xposition Yposition Zposition Yrotation Xrotation Zrotation
 JOINT Chest
 {
  OFFSET 0.000000 9.581000 -0.001100
  CHANNELS 3 Yrotation Xrotation Zrotation
  JOINT Chest2
  {
   OFFSET 0.000000 9.561100 0.002200
   CHANNELS 3 Yrotation Xrotation Zrotation
   JOINT Chest3
   {
    OFFSET 0.000000 9.521100 0.000000
    CHANNELS 3 Yrotation Xrotation Zrotation
    JOINT Chest4
    {
     OFFSET 0.000000 9.511400 0.000000
     CHANNELS 3 Yrotation Xrotation Zrotation
     JOINT Neck
     {
      OFFSET 0.000000 14.375100 0.000000
      CHANNELS 3 Yrotation Xrotation Zrotation
      JOINT Head
      {
       OFFSET 0.000000 8.901200 0.004600
       CHANNELS 3 Yrotation Xrotation Zrotation
       End Site
       {
        OFFSET 0.000000 16.962200 0.002400
       }
      }
     }
     JOINT RightCollar
     {
      OFFSET -2.920100 9.518800 0.000000
      CHANNELS 3 Yrotation Xrotation Zrotation
      JOINT RightShoulder
      {
       OFFSET -13.664500 0.000000 0.000000
       CHANNELS 3 Yrotation Xrotation Zrotation
       JOINT RightElbow
       {
        OFFSET 0.000000 -29.999200 0.000000
        CHANNELS 3 Yrotation Xrotation Zrotation
        JOINT RightWrist
        {
         OFFSET 0.000000 -24.253600 0.000000
         CHANNELS 3 Yrotation Xrotation Zrotation
         End Site
         {
          OFFSET 0.000000 -17.918900 0.000000
         }
        }
       }
      }
     }
     JOINT LeftCollar
     {
      OFFSET 2.920100 9.518800 0.000000
      CHANNELS 3 Yrotation Xrotation Zrotation
      JOINT LeftShoulder
      {
       OFFSET 13.664500 0.000000 0.000000
       CHANNELS 3 Yrotation Xrotation Zrotation
       JOINT LeftElbow
       {
        OFFSET 0.000000 -29.999200 0.000000
        CHANNELS 3 Yrotation Xrotation Zrotation
        JOINT LeftWrist
        {
         OFFSET 0.000000 -24.253600 0.000000
         CHANNELS 3 Yrotation Xrotation Zrotation
         End Site
         {
          OFFSET 0.000000 -17.918900 0.000000
         }
        }
       }
      }
     }
    }
   }
  }
 }
 JOINT RightHip
 {
  OFFSET -7.797300 0.005300 0.000500
  CHANNELS 3 Yrotation Xrotation Zrotation
  JOINT RightKnee
  {
   OFFSET 0.000000 -40.663400 -0.000500
   CHANNELS 3 Yrotation Xrotation Zrotation
   JOINT RightAnkle
   {
    OFFSET 0.000000 -39.523700 -0.000900
    CHANNELS 3 Yrotation Xrotation Zrotation
    JOINT RightToe
    {
     OFFSET 0.000000 -6.418000 14.485300
     CHANNELS 3 Yrotation Xrotation Zrotation
     End Site
     {
      OFFSET 0.000000 -1.465200 6.326400
     }
    }
   }
  }
 }
 JOINT LeftHip
 {
  OFFSET 7.797300 0.005300 0.000500
  CHANNELS 3 Yrotation Xrotation Zrotation
  JOINT LeftKnee
  {
   OFFSET 0.000000 -40.663400 -0.000500
   CHANNELS 3 Yrotation Xrotation Zrotation
   JOINT LeftAnkle
   {
    OFFSET 0.000000 -39.523700 -0.000900
    CHANNELS 3 Yrotation Xrotation Zrotation
    JOINT LeftToe
    {
     OFFSET 0.000000 -6.418000 14.485300
     CHANNELS 3 Yrotation Xrotation Zrotation
     End Site
     {
      OFFSET 0.000000 -1.465200 6.326400
     }
    }
   }
  }
 }
}
MOTION
Frames: 16
Frame Time: 0.008333
0.000000 86.422400 0.000000 0.000000 -5.767877 0.000000 0.000000 11.653817 0.000000 0.000000 -5.885947 0.000000 0.000000 -0.000000 0.000000 0.000000 -0.000000 0.000000 0.000000 12.528835 0.000000 0.000000 0.711642 0.000000 0.000000 -0.000000 0.000000 0.000000 0.000000 -90.000000 0.000000 -2.309062 0.000000 0.000000 2.309062 0.000000 0.000000 -0.000000 0.000000 0.000000 -0.000000 90.000000 0.000000 -2.309062 0.000000 0.000000 2.309062 0.000000 0.000000 8.520406 0.000000 0.000000 1.905762 0.000000 -0.000000 -4.658285 0.000000 0.000000 -0.000000 0.000000 0.000000 8.520406 0.000000 0.000000 1.905762 0.000000 -0.000000 -4.658285 0.000000 0.000000 -0.000000 0.000000
-15.260555 126.882643 16.856083 -179.198943 -46.639166 -4.915425 2.911398 26.425481 3.274190 0.374272 4.490650 0.445102 0.601906 7.114879 0.708179 2.221773 21.642550 2.521524 -4.699284 12.805011 0.674761 -5.171256 -12.184525 1.811361 0.718369 1.666670 2.520898 7.236929 -12.015640 -12.948695 -125.143081 -66.494236 172.058713 1.529798 42.902137 -7.052123 -10.526787 0.190131 0.783516 -9.140743 -12.339761 12.739658 63.347714 -60.599290 -107.177024 8.191841 18.514954 13.931476 -19.185289 -9.673847 1.374446 23.283112 81.252053 36.827040 25.522320 -24.356713 18.113709 0.006655 0.002008 0.002949 13.919149 -13.376671 -6.415581 5.644448 63.911747 -11.070838 1.760609 -3.678404 14.913155 0.001876 -0.001333 0.000831
-15.261689 126.882447 16.856675 -179.197694 -46.639732 -4.917903 2.898847 26.409521 3.245119 0.376962 4.496076 0.454645 0.609959 7.122582 0.719039 2.220230 21.641701 2.519415 -4.862701 12.828420 0.723868 -5.350007 -12.144549 1.914201 0.713363 1.687117 2.520562 7.224385 -12.043698 -12.964507 -125.104181 -66.499053 171.994659 1.603241 42.992050 -6.944325 -10.556719 0.217025 0.740346 -9.175688 -12.353008 12.836467 63.281429 -60.517369 -107.143328 8.239439 18.415663 13.956045 -19.184734 -9.675018 1.373432 23.292034 81.251455 36.836793 25.518925 -24.353434 18.121382 0.006469 0.002331 0.002866 13.917778 -13.377954 -6.418904 5.651327 63.912552 -11.061446 1.764090 -3.676911 14.916483 0.001245 -0.001359 0.000551
-15.262492 126.882995 16.856605 -179.192153 -46.646138 -4.926456 2.896807 26.413403 3.246276 0.367714 4.481025 0.425231 0.615436 7.127074 0.733588 2.215779 21.640332 2.512351 -4.986637 12.865510 0.785130 -5.502434 -12.105828 2.010068 0.673125 1.769365 2.492464 7.179483 -12.122276 -12.934970 -124.997325 -66.489196 171.936885 1.682024 43.097591 -6.834853 -10.574995 0.256322 0.711048 -9.201085 -12.362727 12.910822 63.216820 -60.457980 -107.107257 8.283106 18.330085 13.976731 -19.185148 -9.668167 1.373126 23.297780 81.250116 36.846956 25.500941 -24.357720 18.134583 0.004967 -0.002246 0.002201 13.911819 -13.372743 -6.415855 5.648772 63.912182 -11.061842 1.770076 -3.676348 14.919262 0.001303 -0.000927 0.000577
-15.261837 126.883641 16.856624 -179.169869 -46.651129 -4.956252 2.886134 26.414197 3.245464 0.366037 4.480122 0.422372 0.605579 7.117637 0.712851 2.216366 21.641052 2.514063 -5.020094 12.893501 0.832697 -5.690438 -12.050642 2.133684 0.687253 1.799874 2.504431 7.142593 -12.140500 -12.920034 -124.946087 -66.500724 171.891200 1.740672 43.161753 -6.753213 -10.574420 0.290361 0.700112 -9.233014 -12.369264 12.961335 63.178860 -60.420847 -107.069151 8.333168 18.273779 13.981369 -19.199332 -9.655407 1.380445 23.291140 81.247184 36.843416 25.501538 -24.353848 18.141374 0.005692 -0.003667 0.002522 13.892115 -13.371488 -6.401575 5.644541 63.916345 -11.066241 1.773921 -3.678195 14.928209 0.001392 0.001079 0.000617
-15.262655 126.883766 16.856961 -179.164017 -46.653263 -4.964916 2.878185 26.409515 3.214124 0.369521 4.483579 0.437763 0.607807 7.117761 0.720590 2.212652 21.639501 2.510700 -5.140205 12.933462 0.892971 -5.757876 -12.015920 2.203034 0.685587 1.820505 2.499177 7.116184 -12.157704 -12.903294 -124.912716 -66.505761 171.873585 1.770584 43.209199 -6.712923 -10.589662 0.310519 0.672845 -9.260706 -12.377521 13.002871 63.176732 -60.411266 -107.036015 8.363360 18.255371 13.977103 -19.202596 -9.651778 1.383037 23.283192 81.247854 36.835572 25.504918 -24.348935 18.147655 0.007248 -0.002054 0.003211 13.885678 -13.371135 -6.396600 5.637286 63.919263 -11.076049 1.782307 -3.674340 14.944129 0.002761 0.002246 0.001223
-15.263739 126.883744 16.857411 -179.156013 -46.653948 -4.972836 2.871574 26.410006 3.198808 0.368758 4.482156 0.435766 0.610490 7.117169 0.728792 2.178041 21.631356 2.457116 -5.197783 12.990001 0.988994 -5.808198 -11.978032 2.268507 0.668836 1.890837 2.487431 7.037526 -12.217678 -12.835364 -124.828984 -66.492182 171.893332 1.793245 43.213784 -6.680943 -10.574672 0.342431 0.680267 -9.276461 -12.384807 13.042331 63.112255 -60.374297 -106.991194 8.370645 18.221546 14.001775 -19.206343 -9.649423 1.384380 23.269389 81.248263 36.821169 25.508775 -24.345863 18.153129 0.007749 -0.000410 0.003433 13.878837 -13.370185 -6.394019 5.629209 63.919508 -11.085443 1.787522 -3.672522 14.950619 0.003279 0.002225 0.001453
-15.264162 126.883136 16.858508 -179.149483 -46.649552 -4.982758 2.868008 26.405473 3.195231 0.368452 4.481471 0.434723 0.598585 7.111317 0.693365 2.189803 21.633159 2.468689 -5.208624 13.014865 1.034252 -5.896770 -11.908179 2.363407 0.660852 1.923573 2.482646 6.973705 -12.241065 -12.800110 -124.766961 -66.503373 171.874011 1.816155 43.240695 -6.648382 -10.572178 0.358812 0.677541 -9.289668 -12.391493 13.056234 63.004345 -60.309040 -106.938080 8.373000 18.190005 14.035660 -19.211096 -9.650879 1.389569 23.202954 81.248582 36.754519 25.520232 -24.340030 18.159742 0.004979 -0.000932 0.002206 13.871806 -13.374389 -6.390190 5.627539 63.917499 -11.088776 1.791078 -3.668166 14.962618 0.003576 0.003476 0.001584
-15.264823 126.883072 16.859136 -179.141911 -46.649704 -4.991406 2.863633 26.404976 3.189503 0.368232 4.480962 0.433600 0.595651 7.111218 0.685901 2.186182 21.633207 2.459568 -5.220703 13.037780 1.072305 -5.951285 -11.842225 2.445735 0.650373 1.952560 2.468640 6.933069 -12.256620 -12.762327 -124.712140 -66.547332 171.808418 1.873447 43.227123 -6.579092 -10.576127 0.376140 0.666302 -9.290823 -12.401772 13.057286 62.949784 -60.296345 -106.892166 8.402462 18.181170 14.033310 -19.216438 -9.647963 1.389602 23.211222 81.243925 36.763305 25.521402 -24.336785 18.162048 0.003440 -0.002256 0.001524 13.864819 -13.374591 -6.389035 5.633252 63.916412 -11.084361 1.797434 -3.658793 14.980663 0.004388 0.004647 0.001944
-15.265842 126.882887 16.859832 -179.133487 -46.649789 -4.998107 2.855425 26.405360 3.171875 0.367459 4.480646 0.431125 0.596927 7.109737 0.680633 2.195750 21.634320 2.476321 -5.259853 13.077817 1.108778 -5.954790 -11.807029 2.500422 0.632401 1.978629 2.439232 6.911483 -12.270243 -12.725108 -124.714753 -66.539724 171.837327 1.871773 43.263941 -6.596631 -10.592883 0.393383 0.636873 -9.274312 -12.412692 13.059361 62.906445 -60.296030 -106.860329 8.462652 18.157780 14.004843 -19.222389 -9.646326 1.388472 23.210443 81.244468 36.762562 25.524296 -24.336847 18.161999 0.003073 -0.003052 0.001361 13.858257 -13.373966 -6.391509 5.628083 63.913485 -11.088745 1.808017 -3.651988 14.989358 0.003183 0.004698 0.001411
-15.265720 126.883916 16.859525 -179.129573 -46.659876 -5.008434 2.855749 26.410617 3.160363 0.368049 4.481350 0.428995 0.595921 7.111998 0.670644 2.200408 21.634929 2.472078 -5.267078 13.115932 1.166076 -5.952263 -11.780019 2.553019 0.635229 1.991120 2.453740 6.891870 -12.250509 -12.708257 -124.759419 -66.550235 171.862816 1.895418 43.284314 -6.605996 -10.595923 0.411017 0.641537 -9.256965 -12.422286 13.047527 62.863471 -60.319764 -106.823220 8.478599 18.145195 13.996250 -19.224825 -9.632656 1.390662 23.237119 81.239608 36.789285 25.527566 -24.331937 18.158795 0.003887 -0.003876 0.001722 13.852330 -13.364551 -6.380812 5.625960 63.911534 -11.093835 1.813089 -3.647761 14.995047 0.001734 0.003286 0.000768
-15.265912 126.884196 16.859831 -179.125259 -46.664379 -5.017233 2.853034 26.411395 3.126411 0.370047 4.482522 0.447597 0.598705 7.114970 0.671565 2.182662 21.640271 2.413460 -5.240783 13.145819 1.257666 -5.941887 -11.761382 2.600325 0.654447 1.996058 2.503740 6.872877 -12.216371 -12.693172 -124.823517 -66.574445 171.893367 1.941472 43.250985 -6.559431 -10.580602 0.426947 0.683030 -9.242402 -12.430729 13.043846 62.841411 -60.311637 -106.817821 8.460767 18.154956 14.009267 -19.228180 -9.624238 1.398317 23.244071 81.235343 36.791312 25.525063 -24.336434 18.156986 0.003705 -0.004627 0.001641 13.848533 -13.361333 -6.374058 5.623926 63.910449 -11.095806 1.817450 -3.642262 14.999338 0.001117 0.001933 0.000495
-15.266404 126.884137 16.860340 -179.117810 -46.666171 -5.026632 2.852408 26.412700 3.110700 0.369421 4.483222 0.421706 0.603851 7.114820 0.712424 2.174868 21.642537 2.379351 -5.229521 13.170164 1.311474 -5.925406 -11.746077 2.645643 0.652094 2.010192 2.505604 6.861911 -12.198966 -12.661422 -124.897119 -66.594591 171.931223 1.974930 43.225578 -6.511187 -10.574090 0.436536 0.699336 -9.238862 -12.434633 13.054445 62.893589 -60.239102 -106.877311 8.465105 18.165862 14.009035 -19.239334 -9.618695 1.406260 23.224743 81.239096 36.765294 25.526410 -24.341346 18.153850 0.005314 -0.004066 0.002354 13.841129 -13.361395 -6.368451 5.619837 63.908425 -11.105317 1.827380 -3.629943 15.009495 -0.000518 0.001631 -0.000230
-15.266980 126.883952 16.860860 -179.112631 -46.666965 -5.033878 2.855264 26.412483 3.096133 0.370251 4.482861 0.419172 0.601961 7.117387 0.707832 2.180475 21.639401 2.367928 -5.215374 13.192838 1.363724 -5.915192 -11.746966 2.663084 0.632554 2.026912 2.483099 6.859788 -12.184884 -12.603076 -124.972784 -66.613919 171.970484 2.006749 43.187443 -6.451248 -10.567494 0.445941 0.730463 -9.226618 -12.436433 13.010919 62.859256 -60.258616 -106.853907 8.507288 18.142228 14.004964 -19.244660 -9.615519 1.410527 23.218984 81.240244 36.757831 25.528254 -24.342186 18.152657 0.005063 -0.004854 0.002243 13.836865 -13.362172 -6.364855 5.608521 63.906241 -11.114440 1.837017 -3.619030 15.013176 -0.000062 0.002396 -0.000027
-15.267657 126.883636 16.861403 -179.110031 -46.666613 -5.038465 2.857574 26.411504 3.090336 0.370774 4.482517 0.417888 0.607539 7.115890 0.672366 2.192082 21.640416 2.380182 -5.197810 13.209685 1.412669 -5.911296 -11.743813 2.684182 0.632013 2.027399 2.512927 6.844192 -12.154981 -12.596678 -125.036332 -66.623749 172.007526 2.027302 43.184295 -6.427777 -10.573164 0.457297 0.740529 -9.204444 -12.441697 12.981618 62.809161 -60.280469 -106.820055 8.542348 18.118077 14.011444 -19.248172 -9.613896 1.413890 23.220292 81.239858 36.758111 25.532252 -24.340100 18.146037 0.004485 -0.004462 0.001987 13.835472 -13.365982 -6.362238 5.605498 63.907691 -11.116026 1.843585 -3.607671 15.014390 -0.000249 0.001948 -0.000110
-15.268723 126.883367 16.861804 -179.107932 -46.666640 -5.040084 2.859808 26.411372 3.081922 0.371349 4.482139 0.416727 0.615448 7.120989 0.653060 2.199053 21.641925 2.378917 -5.164892 13.235010 1.462893 -5.863366 -11.678413 2.769025 0.622459 2.025656 2.513089 6.836592 -12.150624 -12.561892 -125.070147 -66.645006 172.005538 2.060358 43.180737 -6.387577 -10.587937 0.464356 0.716202 -9.190577 -12.448705 12.988345 62.757816 -60.271517 -106.785101 8.553958 18.094207 14.035799 -19.251504 -9.612676 1.414889 23.243196 81.242594 36.780055 25.526175 -24.348864 18.137537 0.004232 -0.006552 0.001875 13.832800 -13.368166 -6.361540 5.600453 63.907140 -11.122334 1.854751 -3.593348 15.018804 0.000206 0.003213 0.000091
